PathFileType  4	(X/Y/Z) C:\Users\antoi\Documents\MyRepositories\mobilecap\ResultsAnalysis
DataRate	CameraRate	NumFrames	NumMarkers	Units	OrigDataRate	OrigDataStartFrame	OrigNumFrames
100.0	100.0	5	51	mm	100.0	1	1321
Frame#	Time	r_knee			r_shank_antsup			r_ankle			r_calc			r_5meta			r_toe			L_knee			L_shank_antsup			L_ankle			L_calc			L_5meta			L_toe			r_sh2			r_sh3			r_sh4			L_sh2			L_sh3			r_thigh1			r_thigh2			r_thigh3			r_thigh4			r_thigh5			L_thigh1			L_thigh2			L_thigh3			L_thigh4			r.ASIS			r.PSIS			L.ASIS			L.PSIS			C7			R_Shoulder			L_Shoulder			R_Sternum			L_Sternum			R_humerus			R_elbow_med			R_elbow_lat			R_forearm			R_wrist_radius			R_wrist_ulna			L_humerus			L_elbow_med			L_elbow_lat			L_forearm			L_wrist_radius			L_wrist_ulna			R_HJC			L_HJC			R_HJC_reg			L_HJC_reg			
		X1	Y1	Z1	X2	Y2	Z2	X3	Y3	Z3	X4	Y4	Z4	X5	Y5	Z5	X6	Y6	Z6	X7	Y7	Z7	X8	Y8	Z8	X9	Y9	Z9	X10	Y10	Z10	X11	Y11	Z11	X12	Y12	Z12	X13	Y13	Z13	X14	Y14	Z14	X15	Y15	Z15	X16	Y16	Z16	X17	Y17	Z17	X18	Y18	Z18	X19	Y19	Z19	X20	Y20	Z20	X21	Y21	Z21	X22	Y22	Z22	X23	Y23	Z23	X24	Y24	Z24	X25	Y25	Z25	X26	Y26	Z26	X27	Y27	Z27	X28	Y28	Z28	X29	Y29	Z29	X30	Y30	Z30	X31	Y31	Z31	X32	Y32	Z32	X33	Y33	Z33	X34	Y34	Z34	X35	Y35	Z35	X36	Y36	Z36	X37	Y37	Z37	X38	Y38	Z38	X39	Y39	Z39	X40	Y40	Z40	X41	Y41	Z41	X42	Y42	Z42	X43	Y43	Z43	X44	Y44	Z44	X45	Y45	Z45	X46	Y46	Z46	X47	Y47	Z47	X48	Y48	Z48	X49	Y49	Z49	X50	Y50	Z50	X51	Y51	Z51	

1	0.00000000	-273.74290	475.74309	-403.90949	-249.59444	420.92071	-399.88932	-282.42700	86.62893	-381.17968	-335.25238	54.32873	-422.67834	-173.67698	42.07034	-350.79018	-135.82688	59.96282	-403.96894	-250.37949	473.16662	-750.95339	-224.31451	394.48045	-747.26007	-280.41805	94.99823	-789.89032	-337.20719	52.07157	-751.91941	-178.09996	44.13827	-823.59637	-128.78854	58.04498	-768.03293	-259.75441	310.65923	-378.05849	-320.68565	435.14673	-375.65698	-339.16494	317.63540	-362.48120	-299.21336	418.75961	-791.99071	-307.79705	297.71510	-813.52354	-177.32680	717.99167	-377.09685	-194.08559	606.13608	-388.61274	-302.09015	619.25894	-406.43257	-288.96992	732.97571	-388.95715	-259.12790	592.26099	-383.22430	-147.71133	741.95490	-771.00500	-164.63278	603.97120	-752.29487	-257.29147	753.05676	-789.63375	-278.07299	619.22415	-752.69329	-114.47932	918.26965	-457.39099	-319.35891	948.65114	-549.39038	-96.71493	920.87910	-681.47155	-310.24809	951.58215	-629.67637	-306.89402	1381.23902	-584.36378	-258.35173	1356.93213	-433.55060	-243.93159	1356.76527	-721.48705	-175.84668	1337.24918	-552.30131	-173.27010	1335.54814	-586.96616	-214.28523	1253.16851	-368.02430	-223.90828	1027.87243	-372.22971	-200.02086	1051.53550	-314.31071	-105.44594	1045.51868	-307.11405	26.13597	994.94193	-326.60379	14.42917	962.49995	-309.56534	-211.08130	1260.63900	-792.12733	-190.15765	1032.08443	-792.88933	-171.29466	1065.84729	-848.25621	-66.71681	1045.04851	-850.48132	53.24675	1005.75800	-826.76861	37.57994	969.72165	-838.62689	-197.12843	831.28266	-473.43974	-179.94396	836.60407	-680.16593	-184.52899	846.85105	-498.98284	-167.81071	852.22941	-646.30695	
2	0.01000000	-273.54015	475.82981	-403.87007	-249.48344	420.85563	-399.97644	-282.48517	86.54834	-381.29871	-335.24679	54.33221	-422.65523	-173.59459	42.09773	-350.75042	-135.77159	59.96302	-404.01869	-250.38731	473.23700	-750.97130	-224.31506	394.52615	-747.25039	-280.39032	95.06774	-789.89244	-337.19525	52.09752	-751.88162	-178.05276	44.12637	-823.51192	-128.80113	58.05807	-768.04725	-259.76616	310.63184	-377.92690	-320.54686	434.99218	-375.81555	-339.07633	317.69944	-362.58189	-299.26869	418.85307	-791.93962	-307.82825	297.78508	-813.45856	-177.14358	718.04661	-377.16637	-193.96088	606.14428	-388.55700	-301.91445	619.17811	-406.47690	-288.72649	733.00204	-388.91572	-258.89002	592.24350	-383.24717	-147.63778	741.94755	-771.00474	-164.60073	603.99131	-752.28408	-257.19761	752.93435	-789.23669	-278.02531	619.28903	-752.60282	-114.16329	918.23867	-457.43018	-319.05806	948.62148	-549.47094	-96.52317	920.89349	-681.40890	-309.90507	951.63624	-629.51966	-306.54669	1381.23016	-584.42741	-257.95545	1356.96289	-433.57189	-243.55768	1356.94873	-721.46205	-175.52927	1337.24990	-552.23655	-172.84413	1335.45454	-586.98873	-213.67751	1253.49455	-367.75014	-222.87352	1029.04412	-372.24991	-199.21011	1051.61026	-314.02222	-104.58772	1045.86743	-306.66249	27.07560	995.42661	-326.44376	15.38818	963.04107	-309.15737	-210.64229	1260.74948	-791.96499	-189.46427	1032.25093	-793.21241	-170.55514	1066.21643	-848.73034	-66.03274	1045.30864	-850.37479	53.89618	1006.11885	-826.68861	38.29101	970.01094	-838.63740	-196.83356	831.25210	-473.44747	-179.68491	836.63207	-680.17511	-184.27506	846.75810	-499.15176	-167.44046	852.30315	-646.38282	
3	0.02000000	-273.36568	475.78610	-403.90566	-249.37548	420.80774	-400.06002	-282.46986	86.48028	-381.42327	-335.22875	54.33714	-422.63183	-173.55968	42.08708	-350.72135	-135.75505	59.96194	-404.01603	-250.39281	473.32280	-750.95895	-224.28729	394.60303	-747.24741	-280.37569	95.10471	-789.89639	-337.17756	52.15322	-751.84364	-178.03926	44.12733	-823.48802	-128.77512	58.08624	-768.08665	-259.76193	310.64060	-377.81800	-320.28310	435.16985	-375.78010	-339.01239	317.69532	-362.65855	-299.30826	418.88929	-791.83036	-307.85536	297.84158	-813.43217	-176.87270	717.97024	-377.27056	-193.82733	606.16896	-388.47628	-301.74309	619.10879	-406.52956	-288.50029	732.99802	-388.89176	-258.65458	592.33619	-383.26767	-147.55176	741.93802	-771.00409	-164.56367	604.01549	-752.27732	-257.12263	752.91920	-789.05550	-277.94504	619.36312	-752.50959	-113.87418	918.15319	-457.44991	-318.75928	948.63619	-549.39272	-96.31161	920.91964	-681.32578	-309.69066	951.68564	-629.48911	-306.15930	1381.28207	-584.38255	-257.49343	1356.94828	-433.47666	-243.19125	1357.04706	-721.29253	-175.22878	1337.24040	-552.16673	-172.45014	1335.42034	-586.96346	-213.09619	1253.65020	-367.55853	-221.96278	1029.38694	-371.74802	-198.33158	1051.78186	-313.66937	-103.68772	1046.20832	-306.35880	28.02474	995.85284	-326.25448	16.36171	963.52311	-308.90911	-210.19990	1260.86461	-791.82834	-188.84409	1032.43585	-793.33752	-169.81949	1066.53973	-849.03966	-65.32190	1045.61611	-850.34522	54.64505	1006.50493	-826.56625	39.08135	970.43432	-838.68273	-196.58636	831.19884	-473.45692	-179.47391	836.67457	-680.18503	-183.96115	846.75476	-499.09828	-167.29701	852.35820	-646.27504	
4	0.03000000	-273.21625	475.65709	-404.01869	-249.24792	420.81833	-400.04808	-282.43145	86.46432	-381.45860	-335.19536	54.37443	-422.62611	-173.57396	42.05557	-350.71687	-135.76759	59.93886	-404.00887	-250.39011	473.38769	-750.89774	-224.23632	394.68403	-747.25053	-280.35654	95.12915	-789.91011	-337.15597	52.21881	-751.83372	-178.05542	44.13750	-823.52417	-128.72443	58.08670	-768.10151	-259.69422	310.69727	-377.78312	-320.08597	435.33333	-375.66046	-338.94236	317.66998	-362.67535	-299.34394	418.88355	-791.63771	-307.86211	297.90035	-813.40872	-176.47147	717.85290	-377.40057	-193.62652	606.23091	-388.37080	-301.53771	619.09052	-406.56441	-288.26213	733.01358	-388.84678	-258.42292	592.39976	-383.26331	-147.46526	741.93501	-771.00318	-164.52479	604.02890	-752.27367	-257.06113	752.96387	-789.02960	-277.84327	619.45265	-752.48656	-113.60528	918.05931	-457.41689	-318.46080	948.67212	-549.21410	-96.11681	920.94046	-681.27747	-309.54878	951.72868	-629.56178	-305.74868	1381.35232	-584.25409	-257.02613	1356.93583	-433.33426	-242.83580	1357.05797	-721.08990	-174.90378	1337.22088	-552.15661	-172.07156	1335.41705	-586.88608	-212.50233	1253.68532	-367.48028	-221.17741	1029.30888	-371.12005	-197.40410	1052.05064	-313.30168	-102.73079	1046.57238	-306.12433	28.97761	996.28914	-326.05034	17.37274	963.99364	-308.74617	-209.76175	1260.98799	-791.75159	-188.15064	1032.61482	-793.30840	-169.08627	1066.71695	-849.07440	-64.52519	1045.93232	-850.39362	55.47657	1006.92858	-826.46442	39.93024	970.92972	-838.67681	-196.36873	831.15031	-473.45800	-179.29976	836.71067	-680.18746	-183.61921	846.77332	-498.88701	-167.29126	852.37326	-646.08858	
5	0.04000000	-273.07066	475.61001	-404.10804	-249.04758	420.91229	-399.92948	-282.44185	86.50043	-381.40820	-335.16803	54.42761	-422.64755	-173.57752	42.02108	-350.74336	-135.74801	59.89871	-404.03175	-250.37273	473.41932	-750.83399	-224.18816	394.72217	-747.25108	-280.32973	95.15317	-789.92754	-337.12426	52.26869	-751.84848	-178.06546	44.13373	-823.55705	-128.71390	58.03012	-768.08058	-259.55624	310.75940	-377.79093	-320.34877	434.74026	-375.66829	-338.80974	317.72270	-362.60552	-299.37854	418.89871	-791.44816	-307.83584	297.97552	-813.36230	-176.04973	717.83514	-377.52475	-193.36724	606.31090	-388.26939	-301.27104	619.14128	-406.55001	-287.98756	733.09568	-388.74493	-258.18104	592.36278	-383.21313	-147.38736	741.94034	-771.00548	-164.48399	604.02890	-752.27123	-256.98986	752.99290	-789.00334	-277.73811	619.55928	-752.55194	-113.34983	918.03560	-457.36069	-318.15134	948.69595	-549.06248	-95.96085	920.94055	-681.28884	-309.34727	951.77683	-629.59709	-305.34172	1381.37302	-584.11862	-256.63193	1356.97475	-433.26472	-242.48654	1357.04506	-720.95999	-174.47141	1337.20646	-552.19366	-171.67260	1335.43699	-586.78987	-211.86230	1253.74099	-367.46206	-220.35317	1029.50050	-370.87780	-196.43875	1052.38576	-312.86583	-101.71685	1046.95985	-305.85134	29.96379	996.81448	-325.92188	18.44958	964.52695	-308.53051	-209.31515	1261.13608	-791.76194	-187.26700	1032.83845	-793.32883	-168.34210	1066.80966	-848.97108	-63.64615	1046.23813	-850.41746	56.33675	1007.42427	-826.40002	40.81484	971.36493	-838.50360	-196.13030	831.14872	-473.43207	-179.12530	836.72525	-680.16636	-183.30833	846.73908	-498.73672	-167.20959	852.37281	-646.00236	
